# xmcd CD database file
#
# Track frame offsets:
#	150
#	31788
#	57547
#	117688
#	143978
#	166933
#	189236
#	230921
#	265155
#
# Disc length: 3916 seconds
#
# Revision: 1
# Processed by: cddbd v1.5.2PL0 Copyright (c) Steve Scherf et al.
# Submitted via: CDex 1.51
#
DISCID=810f4a09
DTITLE=The cinematic orchestra - Motion
DYEAR=1999
DGENRE=Jazz
TTITLE0=Durian
TTITLE1=Ode to the big sea
TTITLE2=Night of the iguana
TTITLE3=Channel 1 suite
TTITLE4=Blue birds
TTITLE5=And relax
TTITLE6=Diabolus
TTITLE7=Channel 1 suite (Hefner mix)
TTITLE8=Ode to the big sea (four tet mix)
EXTD=YEAR: 1999
EXTT0=
EXTT1=
EXTT2=
EXTT3=
EXTT4=
EXTT5=
EXTT6=
EXTT7=
EXTT8=
PLAYORDER=
